name processed_emg_signals
nRows=12
nColumns=59
 
endheader
time	Unnamed: 0	Force_Fx1	Force_Fy1	Force_Fz1	Moment_Mx1	Moment_My1	Moment_Mz1	Force_Fx2	Force_Fy2	Force_Fz2	Moment_Mx2	Moment_My2	Moment_Mz2	Force_Fx3	Force_Fy3	Force_Fz3	Moment_Mx3	Moment_My3	Moment_Mz3	Force_Fx4	Force_Fy4	Force_Fz4	Moment_Mx4	Moment_My4	Moment_Mz4	Voltage_1	Voltage_2	Voltage_3	Voltage_4	Voltage_5	Voltage_6	Voltage_7	Voltage_8	Voltage_9	Voltage_10	Voltage_11	Voltage_12	Voltage_13	Voltage_14	Voltage_15	Voltage_16	Voltage_1-VM	Voltage_2-VL	Voltage_3-RF	Voltage_4-GRA	Voltage_5-TA	Voltage_6-AL	Voltage_7-ST	Voltage_8-BF	Voltage_9-MG	Voltage_10-LG	Voltage_11-TFL	Voltage_12-Gmax	Voltage_13-Gmed-intra	Voltage_14-PIR-intra	Voltage_15-OI-intra	Voltage_16-QF-intra	Force_Rig
1.0395	2079.0	-0.0	-0.0	-0.0	-0.0	-0.0	-0.0	-5.583873271942139	34.110557556152344	-431.6056518554688	-110669.109375	15464.3408203125	16069.2001953125	-1.8566640615463257	-32.88095474243164	-443.04876708984375	125844.7734375	14282.8232421875	-15466.7333984375	-0.0	-0.0	-0.0	-0.0	-0.0	-0.0	0.000152587890625	0.00946044921875	-0.0048065185546875	-0.005035400390625	-0.0025558471679687	-0.0046539306640625	0.0012588500976562	-0.0055313110351562	0.0016021728515625	-0.003204345703125	-0.0048446655273437	-0.0049591064453125	-0.0011062622070312	-0.0012588500976562	-0.0017166137695312	-0.0060272216796875	0.042266845703125	0.195159912109375	0.122528076171875	0.105438232421875	1.408233642578125	0.09857177734375	0.11749267578125	0.102691650390625	0.048370361328125	0.1409912109375	0.0531005859375	0.098724365234375	-0.012359619140625	0.3887939453125	0.06011962890625	0.08880615234375	0.1210188269615173
1.04	2080.0	-0.0	-0.0	-0.0	-0.0	-0.0	-0.0	-4.156786918640137	33.513031005859375	-432.0631103515625	-111130.1015625	15354.2392578125	15795.0673828125	-1.3306617736816406	-32.3571891784668	-444.2213745117188	126160.3828125	14042.0126953125	-15375.1396484375	-0.0	-0.0	-0.0	-0.0	-0.0	-0.0	0.0064468383789062	-0.0027084350585937	0.0127410888671875	0.0204086303710937	0.0118255615234375	0.016021728515625	0.004425048828125	0.0252914428710937	0.0081634521484375	0.0087738037109375	0.0231170654296875	0.0177764892578125	0.0091552734375	0.0135421752929687	0.0048828125	0.0318145751953125	0.271759033203125	0.0811767578125	0.08819580078125	0.100860595703125	-1.652069091796875	0.095062255859375	0.104522705078125	0.120086669921875	0.1837158203125	0.028839111328125	0.124359130859375	0.101165771484375	-0.05401611328125	0.428466796875	0.10467529296875	0.078125	2.957400321960449
1.0405	2081.0	-0.0	-0.0	-0.0	-0.0	-0.0	-0.0	-3.0689728260040283	32.68418502807617	-432.5397338867188	-111122.1796875	14944.3740234375	15311.9326171875	-0.0828762277960777	-32.43962478637695	-445.5404357910156	126657.2265625	13775.2333984375	-15196.2890625	-0.0	-0.0	-0.0	-0.0	-0.0	-0.0	0.005340576171875	0.0075531005859375	0.0049972534179687	0.0041580200195312	0.001983642578125	0.00213623046875	0.0027847290039062	0.0067520141601562	0.0024032592773437	0.0027847290039062	0.0064849853515625	0.00396728515625	0.0036239624023437	0.0006866455078125	0.0019073486328125	0.0083541870117187	0.09674072265625	-0.0054931640625	0.072784423828125	0.081939697265625	0.71136474609375	0.08270263671875	0.08056640625	0.074920654296875	0.071258544921875	0.147705078125	0.1739501953125	0.106048583984375	-0.060577392578125	0.38543701171875	0.15625	0.073394775390625	10.836236953735352
1.041	2082.0	-0.0	-0.0	-0.0	-0.0	-0.0	-0.0	-2.2121353149414062	32.02897262573242	-433.31732177734375	-111515.7890625	14742.1318359375	15214.6181640625	0.6322360634803772	-32.351444244384766	-448.5138854980469	127257.2109375	13483.5615234375	-15129.6796875	-0.0	-0.0	-0.0	-0.0	-0.0	-0.0	-0.0058746337890625	-0.0054931640625	-0.0130844116210937	-0.016021728515625	-0.0132369995117187	-0.0139999389648437	-0.009613037109375	-0.0222015380859375	-0.0087738037109375	-0.0086212158203125	-0.019073486328125	-0.0154495239257812	-0.0081634521484375	-0.0120162963867187	-0.0038909912109375	-0.0318527221679687	0.04364013671875	0.08544921875	0.127410888671875	0.0909423828125	0.489349365234375	0.0872802734375	0.087890625	0.09552001953125	0.10589599609375	0.0555419921875	0.113067626953125	0.096588134765625	-0.079193115234375	0.34393310546875	0.17120361328125	0.0836181640625	-0.8244416117668152
1.0415	2083.0	-0.0	-0.0	-0.0	-0.0	-0.0	-0.0	-2.194995880126953	31.01323509216309	-433.0150451660156	-111620.984375	14387.0009765625	14989.9658203125	0.8297758102416992	-32.43989944458008	-451.7808532714844	128068.6171875	13382.751953125	-14996.669921875	-0.0	-0.0	-0.0	-0.0	-0.0	-0.0	-0.0027847290039062	-0.00579833984375	-0.0030899047851562	-0.0054931640625	-0.0034332275390625	-0.0017929077148437	-0.0008392333984375	-0.006256103515625	-0.0019454956054687	-0.0024032592773437	-0.006561279296875	-0.0034713745117187	-0.002593994140625	-0.0026702880859375	0.000762939453125	-0.0081634521484375	0.1336669921875	0.13671875	0.26702880859375	0.09979248046875	-0.864105224609375	0.09490966796875	0.103912353515625	0.10528564453125	0.12237548828125	0.1019287109375	0.0335693359375	0.092926025390625	-0.157470703125	0.28564453125	0.1556396484375	0.069580078125	2.642246723175049
1.042	2084.0	-0.0	-0.0	-0.0	-0.0	-0.0	-0.0	-1.2139716148376465	30.331430435180664	-434.6882629394531	-111783.53125	14028.7392578125	14898.7421875	1.2158528566360474	-33.063480377197266	-453.0755920410156	128728.6796875	13120.4931640625	-15089.0791015625	-0.0	-0.0	-0.0	-0.0	-0.0	-0.0	0.0069046020507812	0.014190673828125	0.0142669677734375	0.0192642211914062	0.0122451782226562	0.0159454345703125	0.0074386596679687	0.0240325927734375	0.0058746337890625	0.0083541870117187	0.0196075439453125	0.0168991088867187	0.0118255615234375	0.0131607055664062	0.0065994262695312	0.0294876098632812	0.2484130859375	0.1531982421875	0.10223388671875	0.116729736328125	0.643310546875	0.11688232421875	0.120086669921875	0.120697021484375	0.081634521484375	0.11627197265625	0.027923583984375	0.09429931640625	-0.210723876953125	0.091552734375	0.16387939453125	0.059051513671875	19.660533905029297
1.0425	2085.0	-0.0	-0.0	-0.0	-0.0	-0.0	-0.0	-0.4695938229560852	29.85868453979492	-433.3665161132813	-111884.5	13841.1513671875	14656.54296875	1.3569002151489258	-33.1256103515625	-456.0313415527344	129351.5625	13084.615234375	-15066.337890625	-0.0	-0.0	-0.0	-0.0	-0.0	-0.0	-0.0002288818359375	-0.0061798095703125	0.0018692016601562	0.0044631958007812	0.0037384033203125	0.007781982421875	0.0006484985351562	0.0060653686523437	0.0015640258789062	0.0021743774414062	0.0063323974609375	0.003662109375	0.002288818359375	0.0053787231445312	0.0008773803710937	0.0070571899414062	-0.027923583984375	0.14129638671875	0.150299072265625	0.113525390625	-0.708770751953125	0.113525390625	0.104217529296875	0.10650634765625	0.136260986328125	0.057830810546875	0.134429931640625	0.11199951171875	-0.077972412109375	0.2618408203125	0.19683837890625	0.0665283203125	11.15139102935791
1.043	2086.0	-0.0	-0.0	-0.0	-0.0	-0.0	-0.0	-0.2093241065740585	29.36176872253418	-432.55078125	-111922.6796875	13489.25390625	14663.8134765625	1.4505362510681152	-33.4166259765625	-457.7189636230469	129827.3125	12837.142578125	-15217.884765625	-0.0	-0.0	-0.0	-0.0	-0.0	-0.0	-0.0065994262695312	-0.0034713745117187	-0.0133514404296875	-0.01678466796875	-0.012359619140625	-0.0156784057617187	-0.0054931640625	-0.0247573852539062	-0.0061416625976562	-0.0096511840820312	-0.0197601318359375	-0.0160980224609375	-0.0083541870117187	-0.0123977661132812	-0.0052642822265625	-0.0308990478515625	0.1824951171875	0.028839111328125	0.024261474609375	0.08941650390625	0.750732421875	0.089263916015625	0.08941650390625	0.087432861328125	0.05401611328125	0.14892578125	0.157623291015625	0.102691650390625	0.020904541015625	0.2813720703125	0.21240234375	0.065460205078125	2.3270931243896484
1.0435	2087.0	-0.0	-0.0	-0.0	-0.0	-0.0	-0.0	-0.2918796837329864	29.793781280517575	-432.52337646484375	-111496.8125	13341.7900390625	14564.2177734375	1.41937255859375	-33.889129638671875	-457.161865234375	129879.671875	12643.4609375	-15357.365234375	-0.0	-0.0	-0.0	-0.0	-0.0	-0.0	-0.0022125244140625	-0.0048446655273437	-0.0030136108398437	-0.0043487548828125	-0.0029754638671875	-0.0014114379882812	-0.002593994140625	-0.0034713745117187	-0.0023269653320312	-0.0028228759765625	-0.0051498413085937	-0.0043869018554687	-0.0011062622070312	-0.0008773803710937	0.0002288818359375	-0.0069808959960937	0.109100341796875	0.015869140625	0.126495361328125	0.0921630859375	-0.32012939453125	0.08880615234375	0.082244873046875	0.088043212890625	0.107574462890625	0.065765380859375	0.12542724609375	0.0885009765625	0.0860595703125	0.20965576171875	0.19805908203125	0.0738525390625	2.642246723175049
1.044	2088.0	-0.0	-0.0	-0.0	-0.0	-0.0	-0.0	-0.0553642511367797	29.262428283691406	-430.6359252929688	-111437.46875	12905.646484375	14585.0888671875	1.3040021657943726	-34.66168594360352	-459.1171875	130075.46875	12713.234375	-15485.05078125	-0.0	-0.0	-0.0	-0.0	-0.0	-0.0	0.0071334838867187	0.0123214721679687	0.012969970703125	0.01922607421875	0.0127410888671875	0.0148773193359375	0.0084686279296875	0.0242996215820312	0.0067520141601562	0.0093460083007812	0.0201797485351562	0.0157546997070312	0.0107955932617187	0.0122451782226562	0.0045394897460937	0.0291824340820312	0.11322021484375	0.236053466796875	-0.121917724609375	0.09552001953125	0.4278564453125	0.085906982421875	0.0909423828125	0.097503662109375	0.078125	0.1397705078125	0.0762939453125	0.095672607421875	0.151824951171875	0.1959228515625	0.18463134765625	0.08026123046875	13.98777198791504
1.0445	2089.0	-0.0	-0.0	-0.0	-0.0	-0.0	-0.0	0.415361225605011	29.231910705566406	-429.9414978027344	-111484.6015625	12993.34765625	14498.2294921875	0.8871078491210938	-34.878807067871094	-459.1343994140625	130463.578125	12381.8427734375	-15663.267578125	-0.0	-0.0	-0.0	-0.0	-0.0	-0.0	0.0026321411132812	0.0083160400390625	0.004119873046875	0.0045394897460937	0.0006866455078125	0.0045394897460937	0.0043487548828125	0.0078582763671875	0.0010299682617187	0.00091552734375	0.0052642822265625	0.002899169921875	0.0023651123046875	0.0031661987304687	0.0048446655273437	0.00823974609375	0.116729736328125	0.12542724609375	0.324554443359375	0.09918212890625	1.0772705078125	0.09674072265625	0.10101318359375	0.086517333984375	0.152740478515625	0.054931640625	0.0616455078125	0.099945068359375	0.226898193359375	0.0872802734375	0.1275634765625	0.072479248046875	1.0664793252944946
1.045	2090.0	-0.0	-0.0	-0.0	-0.0	-0.0	-0.0	0.1557718515396118	28.396692276000977	-430.2944030761719	-110854.328125	12505.568359375	14418.1865234375	0.6866896748542786	-34.88706970214844	-461.001708984375	131042.25	12196.716796875	-15674.9453125	-0.0	-0.0	-0.0	-0.0	-0.0	-0.0	-0.004730224609375	-0.0106048583984375	-0.011138916015625	-0.0174713134765625	-0.010986328125	-0.0141143798828125	-0.011749267578125	-0.0239181518554687	-0.0093460083007812	-0.007781982421875	-0.021820068359375	-0.015716552734375	-0.0101089477539062	-0.0110626220703125	-0.0049972534179687	-0.0298309326171875	0.1904296875	0.141754150390625	-0.15167236328125	0.100555419921875	0.18768310546875	0.0933837890625	0.1141357421875	0.111846923828125	0.0726318359375	0.086669921875	0.088043212890625	0.091705322265625	0.254669189453125	-0.01190185546875	0.11993408203125	0.07965087890625	0.751325786113739
